<!DOCTYPE svg PUBLIC "-//W3C//DTD SVG 20010904//EN" "http://www.w3.org/TR/2001/REC-SVG-20010904/DTD/svg10.dtd">
<svg version="1.0" xmlns="http://www.w3.org/2000/svg" width="681px" height="615px" viewBox="0 0 6810 6150" preserveAspectRatio="xMidYMid meet">
<g id="layer1" fill="#933a3a" stroke="none">
 <path d="M524 5889 c-151 -19 -243 -71 -314 -176 -46 -67 -60 -123 -60 -231 0 -165 37 -260 138 -353 71 -64 249 -162 286 -157 24 3 24 15 1 78 -19 51 -14 133 10 179 25 49 87 101 139 116 83 25 109 19 202 -41 51 -34 104 -115 128 -198 l25 -81 8 -1090 c5 -600 8 -1091 8 -1092 -2 -7 -442 285 -501 333 l-41 33 -6 112 c-4 72 -12 120 -21 135 -16 24 -79 50 -96 39 -7 -5 -10 -108 -8 -322 l3 -315 49 -45 c42 -38 143 -116 258 -199 14 -10 115 -91 224 -179 282 -229 358 -284 371 -271 4 3 5 312 4 686 -1 374 0 680 4 680 18 0 124 -104 177 -173 123 -161 191 -355 228 -657 10 -83 31 -213 71 -437 24 -133 58 -260 87 -323 11 -25 33 -74 49 -110 59 -135 204 -300 311 -352 64 -32 71 -33 187 -33 129 1 171 12 257 72 49 33 104 132 124 223 30 131 -10 263 -106 357 -73 71 -94 70 -119 -9 -14 -41 -87 -114 -125 -124 -25 -6 -120 17 -166 41 -143 74 -312 356 -339 565 -52 397 -74 510 -127 641 -48 118 -84 178 -144 242 l-60 64 62 7 c77 9 106 24 171 89 56 55 87 124 137 302 56 199 89 260 167 309 32 21 52 26 85 24 30 -2 42 -7 40 -17 -1 -7 -14 -52 -28 -99 -38 -133 -54 -243 -54 -376 0 -187 36 -334 124 -516 42 -87 64 -118 126 -180 84 -85 145 -120 209 -120 81 0 146 58 212 190 43 84 43 86 47 210 5 140 -12 230 -67 373 -49 129 -173 312 -232 342 -16 9 -29 20 -29 25 0 20 40 49 81 60 66 18 128 -2 193 -60 49 -45 55 -57 90 -162 44 -133 59 -251 76 -588 6 -124 15 -288 21 -365 7 -77 14 -268 18 -425 l6 -285 45 0 45 0 2 74 c4 105 23 123 166 156 129 29 216 94 262 197 26 59 29 74 36 258 9 231 14 262 45 291 20 19 30 21 70 15 73 -10 101 -44 124 -146 14 -65 14 -360 1 -494 -6 -50 -15 -217 -22 -371 l-13 -279 92 -86 c100 -94 169 -140 177 -118 2 7 6 47 7 88 3 72 4 74 16 45 82 -183 149 -289 214 -338 40 -31 114 -43 161 -28 87 29 120 118 118 321 -1 69 -6 152 -11 186 -5 33 -11 143 -11 245 -2 167 0 190 21 252 12 38 29 71 36 74 37 14 111 -48 141 -117 8 -20 7 -30 -9 -52 -62 -89 -109 -404 -80 -541 6 -28 25 -124 41 -212 37 -193 68 -293 125 -400 63 -117 102 -173 164 -237 79 -82 125 -90 317 -59 100 17 136 8 190 -45 60 -61 97 -140 149 -327 49 -172 51 -177 70 -177 20 0 77 31 82 44 5 13 -21 165 -51 306 -21 96 -26 415 -8 475 7 22 17 58 23 80 13 51 63 106 104 115 29 6 111 -13 120 -29 3 -4 -1 -20 -8 -36 -46 -105 -71 -264 -63 -398 13 -209 78 -341 175 -354 36 -5 46 -1 83 31 56 48 84 116 99 239 14 120 7 220 -27 352 -47 186 -47 184 -27 206 24 27 57 24 96 -8 49 -41 55 -50 105 -151 l45 -93 1 -142 c1 -181 -19 -286 -78 -411 -43 -93 -81 -138 -159 -190 -47 -31 -55 -32 -136 -5 -83 27 -89 21 -97 -97 -6 -97 3 -134 54 -206 50 -73 191 -116 292 -88 93 25 205 178 245 337 39 150 48 230 49 413 1 152 -3 206 -21 301 -37 196 -112 353 -209 439 -85 75 -155 95 -226 65 l-35 -15 -21 68 c-26 82 -53 127 -106 173 -65 58 -109 74 -202 74 l-82 0 -41 -40 c-45 -43 -84 -112 -106 -185 -21 -72 -44 -209 -44 -268 0 -58 26 -271 40 -337 15 -64 13 -69 -17 -48 -45 31 -81 43 -125 43 -34 0 -39 3 -35 18 77 237 93 339 84 556 -10 237 -70 518 -141 662 -36 73 -57 102 -123 165 -59 57 -95 82 -137 98 -79 29 -158 28 -214 -4 -30 -17 -44 -21 -47 -12 -31 102 -48 148 -56 152 -5 4 -9 12 -9 19 0 23 -74 140 -116 182 -51 52 -96 74 -151 74 -61 0 -103 -20 -145 -69 -71 -83 -89 -227 -64 -501 40 -430 40 -455 1 -493 -44 -44 -95 -2 -135 111 -16 46 -34 118 -40 159 -15 95 -17 436 -7 823 l8 295 -87 75 c-144 125 -144 125 -165 112 -15 -9 -19 -8 -24 9 -4 11 -34 49 -67 84 -102 110 -205 131 -310 64 -80 -52 -138 -142 -159 -247 -13 -72 -7 -300 12 -417 16 -99 8 -231 -16 -273 -23 -39 -117 -105 -143 -100 -15 3 -18 26 -24 233 -7 254 -43 804 -58 903 -37 226 -109 465 -171 563 -33 53 -127 144 -179 176 -39 24 -143 53 -186 53 -42 -1 -114 -36 -156 -78 -21 -20 -38 -32 -38 -27 0 40 -34 207 -49 240 -10 23 -45 69 -77 102 -69 70 -141 102 -244 110 -85 7 -154 -21 -209 -84 -71 -80 -86 -126 -126 -381 -35 -227 -47 -279 -79 -339 -25 -49 -85 -116 -135 -150 -38 -27 -55 -32 -103 -33 l-58 0 0 83 c0 45 -4 206 -10 357 -5 151 -12 376 -15 500 -4 124 -11 262 -16 307 -11 94 -57 257 -98 347 -39 86 -160 230 -235 281 -53 35 -157 74 -245 90 -90 16 -96 16 -187 4z m2050 -1972 c51 -67 94 -178 120 -315 31 -157 32 -197 8 -277 -32 -105 -50 -134 -87 -141 -48 -9 -67 1 -98 48 -53 82 -71 166 -72 333 0 131 3 160 24 225 27 88 60 160 72 160 4 0 19 -15 33 -33z m2654 -1671 c55 -48 88 -155 101 -327 17 -222 -9 -413 -78 -575 -29 -70 -66 -107 -119 -121 -56 -14 -124 75 -159 208 -34 132 -43 363 -18 504 26 149 72 283 108 317 48 43 112 41 165 -6z m972 -1173 c6 -39 10 -91 8 -115 -3 -40 -5 -43 -34 -46 -39 -4 -55 25 -57 99 0 56 18 183 30 202 11 18 41 -62 53 -140z"/>
 <path d="M3686 5791 c-16 -26 54 -340 117 -526 68 -199 220 -545 280 -637 12 -18 31 -49 41 -68 106 -192 490 -721 669 -920 187 -208 319 -337 523 -512 28 -23 75 -64 105 -90 137 -118 461 -388 577 -480 46 -37 99 -77 212 -158 30 -22 66 -50 80 -63 14 -13 38 -32 55 -43 16 -10 48 -36 70 -57 50 -47 104 -65 123 -40 6 9 12 24 12 33 0 14 -158 163 -260 246 -19 15 -71 60 -115 99 -44 39 -120 107 -170 151 -84 74 -289 280 -402 404 -147 162 -136 149 -251 295 -134 172 -288 395 -350 508 -17 30 -57 100 -91 156 -34 56 -61 104 -61 108 0 3 -16 31 -35 63 -40 66 -132 250 -172 343 -14 34 -33 78 -41 97 -22 49 -56 146 -99 277 l-37 113 -66 39 c-93 56 -256 189 -386 317 -112 110 -150 154 -246 278 -54 71 -71 85 -82 67z"/>
 </g>

</svg>